<?xml version="1.0" encoding="UTF-8" standalone="no"?>
<!-- Created with Inkscape (http://www.inkscape.org/) -->

<svg
   version="1.1"
   id="svg1"
   width="753.8493"
   height="175.22533"
   viewBox="0 0 753.8493 175.22533"
   xmlns="http://www.w3.org/2000/svg"
   xmlns:svg="http://www.w3.org/2000/svg">
  <defs
     id="defs1" />
  <g
     id="layer-MC0">
    <path
       id="path1"
       d="m 0,0 c -4,0 -6.521,2.821 -6.521,7.122 0,4.281 2.581,7.161 6.601,7.161 1.561,0 2.761,-0.36 3.781,-1 l -0.38,-2.5 c -0.9,0.679 -1.96,1.22 -3.301,1.22 -2.5,0 -4.001,-1.88 -4.001,-4.861 0,-3.001 1.561,-4.841 4.041,-4.841 1.301,0 2.441,0.48 3.501,1.2 l 0.36,-2.32 C 3.001,0.48 1.581,0 0,0"
       style="fill:#0e1531;fill-opacity:1;fill-rule:nonzero;stroke:none"
       transform="matrix(1.3333333,0,0,-1.3333333,140.07707,109.27867)" />
    <path
       id="path2"
       d="M 0,0 V 6.321 C 0,7.162 -0.36,7.742 -1.24,7.742 -2,7.742 -2.741,7.262 -3.441,6.521 V 0 h -2.4 v 14.063 l 2.4,0.38 V 8.442 c 0.8,0.74 1.801,1.42 3.081,1.42 1.8,0 2.76,-1.1 2.76,-2.901 L 2.4,0 Z"
       style="fill:#0e1531;fill-opacity:1;fill-rule:nonzero;stroke:none"
       transform="matrix(1.3333333,0,0,-1.3333333,156.74373,108.9584)" />
    <path
       id="path3"
       d="M 0,0 H 3.861 C 3.701,1.5 3.101,2.34 1.94,2.34 0.98,2.34 0.18,1.56 0,0 m 2.321,-6.062 c -2.701,0 -4.721,1.541 -4.721,5.021 0,3.142 1.88,5.042 4.4,5.042 2.901,0 4.201,-2.181 4.201,-4.921 0,-0.2 -0.02,-0.44 -0.02,-0.58 H -0.04 c 0.12,-1.901 1.14,-2.701 2.621,-2.701 1.24,0 2.26,0.46 3.32,1.201 l 0.28,-1.881 c -1.04,-0.72 -2.3,-1.181 -3.86,-1.181"
       style="fill:#0e1531;fill-opacity:1;fill-rule:nonzero;stroke:none"
       transform="matrix(1.3333333,0,0,-1.3333333,166.67533,101.14333)" />
    <path
       id="path4"
       d="m 0,0 v 6.321 c 0,0.841 -0.3,1.421 -1.18,1.421 -0.74,0 -1.441,-0.48 -2.141,-1.2 V 0 h -2.4 v 6.321 c 0,0.841 -0.32,1.421 -1.2,1.421 -0.741,0 -1.441,-0.48 -2.141,-1.2 V 0 h -2.4 v 9.662 h 2.04 l 0.22,-1.36 c 0.9,0.86 1.881,1.56 3.181,1.56 1.38,0 2.12,-0.62 2.48,-1.56 0.86,0.86 1.921,1.56 3.221,1.56 1.82,0 2.72,-1.1 2.72,-2.901 L 2.4,0 Z"
       style="fill:#0e1531;fill-opacity:1;fill-rule:nonzero;stroke:none"
       transform="matrix(1.3333333,0,0,-1.3333333,193.9312,108.9584)" />
    <path
       id="path5"
       d="m 151.034,59.362 h 2.4 V 49.7 h -2.4 z m 1.22,1.62 c -0.8,0 -1.44,0.561 -1.44,1.361 0,0.82 0.64,1.4 1.44,1.4 0.78,0 1.42,-0.58 1.42,-1.4 0,-0.8 -0.64,-1.361 -1.42,-1.361"
       style="fill:#0e1531;fill-opacity:1;fill-rule:nonzero;stroke:none"
       transform="matrix(1.3333333,0,0,-1.3333333,0,175.22533)" />
    <path
       id="path6"
       d="m 0,0 c -2.681,0 -4.581,1.8 -4.581,4.961 0,3.361 2.101,5.081 4.721,5.081 1.26,0 2.26,-0.38 2.961,-0.82 L 2.76,7.062 c -0.78,0.58 -1.54,0.9 -2.5,0.9 -1.42,0 -2.421,-1.021 -2.421,-2.941 0,-2 1.1,-2.96 2.501,-2.96 0.84,0 1.66,0.24 2.54,0.92 L 3.201,0.92 C 2.28,0.3 1.28,0 0,0"
       style="fill:#0e1531;fill-opacity:1;fill-rule:nonzero;stroke:none"
       transform="matrix(1.3333333,0,0,-1.3333333,214.25213,109.19867)" />
    <path
       id="path7"
       d="m 0,0 c -2.781,-0.34 -3.441,-1.16 -3.441,-2.08 0,-0.7 0.441,-1.121 1.18,-1.121 0.821,0 1.601,0.381 2.261,1.041 z m 0.34,-4.821 -0.2,1.26 c -0.78,-0.82 -1.781,-1.46 -3.221,-1.46 -1.64,0 -2.74,1 -2.74,2.681 0,2.34 1.92,3.361 5.821,3.74 v 0.281 c 0,1.04 -0.6,1.44 -1.661,1.44 -1.12,0 -2.18,-0.32 -3.22,-0.78 l -0.3,1.92 c 1.12,0.44 2.3,0.781 3.841,0.781 2.5,0 3.74,-0.921 3.74,-3.241 v -6.622 z"
       style="fill:#0e1531;fill-opacity:1;fill-rule:nonzero;stroke:none"
       transform="matrix(1.3333333,0,0,-1.3333333,229.04907,102.53067)" />
    <path
       id="path8"
       d="m 0,0 v 14.063 l 2.4,0.38 V 0 Z"
       style="fill:#0e1531;fill-opacity:1;fill-rule:nonzero;stroke:none"
       transform="matrix(1.3333333,0,0,-1.3333333,236.48453,108.9584)" />
    <path
       id="path9"
       d="m 0,0 c -2.781,-0.34 -3.441,-1.16 -3.441,-2.08 0,-0.7 0.441,-1.121 1.18,-1.121 0.821,0 1.601,0.381 2.261,1.041 z m 0.34,-4.821 -0.2,1.26 c -0.78,-0.82 -1.781,-1.46 -3.221,-1.46 -1.64,0 -2.74,1 -2.74,2.681 0,2.34 1.92,3.361 5.821,3.74 v 0.281 c 0,1.04 -0.6,1.44 -1.661,1.44 -1.12,0 -2.18,-0.32 -3.22,-0.78 l -0.3,1.92 c 1.12,0.44 2.3,0.781 3.841,0.781 2.5,0 3.74,-0.921 3.74,-3.241 v -6.622 z"
       style="fill:#0e1531;fill-opacity:1;fill-rule:nonzero;stroke:none"
       transform="matrix(1.3333333,0,0,-1.3333333,257.952,102.53067)" />
    <path
       id="path10"
       d="M 0,0 V 6.321 C 0,7.162 -0.36,7.742 -1.24,7.742 -2,7.742 -2.741,7.262 -3.441,6.521 V 0 h -2.4 v 9.662 h 2.04 l 0.22,-1.36 c 0.9,0.86 1.921,1.56 3.221,1.56 1.8,0 2.76,-1.1 2.76,-2.901 L 2.4,0 Z"
       style="fill:#0e1531;fill-opacity:1;fill-rule:nonzero;stroke:none"
       transform="matrix(1.3333333,0,0,-1.3333333,273.10893,108.9584)" />
    <path
       id="path11"
       d="m 0,0 c -0.6,0.28 -1.061,0.42 -1.88,0.42 -1.261,0 -2.181,-1.02 -2.181,-3.14 0,-1.881 0.8,-2.761 1.86,-2.761 0.881,0 1.561,0.52 2.201,1.32 z m 0.34,-7.421 -0.2,1.34 c -0.68,-0.82 -1.62,-1.541 -2.961,-1.541 -2.02,0 -3.64,1.501 -3.64,4.762 0,3.6 1.98,5.201 4.22,5.201 C -1.32,2.341 -0.58,2.181 0,1.98 V 6.642 L 2.4,7.021 V -7.421 Z"
       style="fill:#0e1531;fill-opacity:1;fill-rule:nonzero;stroke:none"
       transform="matrix(1.3333333,0,0,-1.3333333,288.506,99.0632)" />
    <path
       id="path12"
       d="m 0,0 h -1.38 v -4.221 h 1.42 c 1.68,0 2.66,0.7 2.66,2.081 C 2.7,-0.74 1.76,0 0,0 M -0.04,5.542 H -1.38 V 1.88 h 1.22 c 1.56,0 2.38,0.701 2.38,1.881 0,1.1 -0.66,1.781 -2.26,1.781 M 0.04,-6.241 H -3.921 V 7.562 H 0.1 c 3.101,0 4.581,-1.4 4.581,-3.581 0,-1.44 -0.8,-2.38 -2.001,-2.88 C 4.221,0.62 5.241,-0.38 5.241,-2.22 5.241,-4.941 3.28,-6.241 0.04,-6.241"
       style="fill:#0e1531;fill-opacity:1;fill-rule:nonzero;stroke:none"
       transform="matrix(1.3333333,0,0,-1.3333333,308.3452,100.6368)" />
    <path
       id="path13"
       d="m 239.391,59.362 h 2.4 V 49.7 h -2.4 z m 1.22,1.62 c -0.8,0 -1.44,0.561 -1.44,1.361 0,0.82 0.64,1.4 1.44,1.4 0.781,0 1.421,-0.58 1.421,-1.4 0,-0.8 -0.64,-1.361 -1.421,-1.361"
       style="fill:#0e1531;fill-opacity:1;fill-rule:nonzero;stroke:none"
       transform="matrix(1.3333333,0,0,-1.3333333,0,175.22533)" />
    <path
       id="path14"
       d="m 0,0 c -1.42,0 -2.181,-1.28 -2.181,-3.081 0,-1.76 0.781,-3.061 2.181,-3.061 1.48,0 2.24,1.261 2.24,3.061 C 2.24,-1.3 1.44,0 0,0 m 0,-8.102 c -2.621,0 -4.521,1.88 -4.521,5.021 0,3.141 1.92,5.041 4.541,5.041 2.641,0 4.561,-1.9 4.561,-5.041 0,-3.141 -1.94,-5.021 -4.581,-5.021"
       style="fill:#0e1531;fill-opacity:1;fill-rule:nonzero;stroke:none"
       transform="matrix(1.3333333,0,0,-1.3333333,331.98133,98.422533)" />
    <path
       id="path15"
       d="m 0,0 v 14.063 l 2.4,0.38 V 0 Z"
       style="fill:#0e1531;fill-opacity:1;fill-rule:nonzero;stroke:none"
       transform="matrix(1.3333333,0,0,-1.3333333,341.71053,108.9584)" />
    <path
       id="path16"
       d="m 0,0 c -1.42,0 -2.181,-1.28 -2.181,-3.081 0,-1.76 0.781,-3.061 2.181,-3.061 1.48,0 2.24,1.261 2.24,3.061 C 2.24,-1.3 1.44,0 0,0 m 0,-8.102 c -2.621,0 -4.521,1.88 -4.521,5.021 0,3.141 1.92,5.041 4.541,5.041 2.641,0 4.561,-1.9 4.561,-5.041 0,-3.141 -1.94,-5.021 -4.581,-5.021"
       style="fill:#0e1531;fill-opacity:1;fill-rule:nonzero;stroke:none"
       transform="matrix(1.3333333,0,0,-1.3333333,354.57573,98.422533)" />
    <path
       id="path17"
       d="m 0,0 c -1.061,0 -1.681,-0.82 -1.681,-1.88 0,-1 0.64,-1.761 1.681,-1.761 1.06,0 1.7,0.78 1.7,1.821 C 1.7,-0.78 1.02,0 0,0 m -1.46,-7.862 c -0.701,-0.48 -1.021,-0.94 -1.021,-1.44 0,-0.72 0.86,-1.24 2.681,-1.24 1.72,0 2.7,0.58 2.7,1.3 0,0.52 -0.42,0.82 -1.62,1 l -1.3,0.16 c -0.66,0.081 -0.98,0.12 -1.44,0.22 m 1.5,-4.1 c -2.621,0 -4.601,0.799 -4.601,2.4 0,0.92 0.62,1.6 1.82,2.26 -0.38,0.301 -0.56,0.66 -0.56,1.061 0,0.54 0.42,1.06 1.22,1.52 -1.14,0.54 -1.82,1.56 -1.82,2.841 0,2.1 1.72,3.421 3.881,3.421 1.1,0 2.04,-0.321 2.74,-0.901 l 2.361,0.84 0.32,-1.92 -1.76,-0.12 C 3.801,-0.94 3.9,-1.38 3.9,-1.82 c 0,-2.081 -1.78,-3.321 -3.86,-3.321 -0.28,0 -0.561,0 -0.8,0.04 -0.24,-0.16 -0.381,-0.34 -0.381,-0.5 0,-0.32 0.301,-0.4 1.801,-0.62 l 1.24,-0.12 c 1.98,-0.281 3.221,-0.901 3.221,-2.381 0,-2.08 -2.281,-3.24 -5.081,-3.24"
       style="fill:#0e1531;fill-opacity:1;fill-rule:nonzero;stroke:none"
       transform="matrix(1.3333333,0,0,-1.3333333,368.85507,97.862667)" />
    <path
       id="path18"
       d="m 284.278,59.362 h 2.4 V 49.7 h -2.4 z m 1.22,1.62 c -0.8,0 -1.44,0.561 -1.44,1.361 0,0.82 0.64,1.4 1.44,1.4 0.78,0 1.421,-0.58 1.421,-1.4 0,-0.8 -0.641,-1.361 -1.421,-1.361"
       style="fill:#0e1531;fill-opacity:1;fill-rule:nonzero;stroke:none"
       transform="matrix(1.3333333,0,0,-1.3333333,0,175.22533)" />
    <path
       id="path19"
       d="m 0,0 c -2.681,0 -4.581,1.8 -4.581,4.961 0,3.361 2.101,5.081 4.721,5.081 1.26,0 2.26,-0.38 2.961,-0.82 L 2.76,7.062 c -0.78,0.58 -1.54,0.9 -2.5,0.9 -1.42,0 -2.421,-1.021 -2.421,-2.941 0,-2 1.1,-2.96 2.501,-2.96 0.84,0 1.66,0.24 2.54,0.92 L 3.201,0.92 C 2.28,0.3 1.28,0 0,0"
       style="fill:#0e1531;fill-opacity:1;fill-rule:nonzero;stroke:none"
       transform="matrix(1.3333333,0,0,-1.3333333,391.91107,109.19867)" />
    <path
       id="path20"
       d="m 0,0 c -2.781,-0.34 -3.441,-1.16 -3.441,-2.08 0,-0.7 0.441,-1.121 1.18,-1.121 0.821,0 1.601,0.381 2.261,1.041 z m 0.34,-4.821 -0.2,1.26 c -0.78,-0.82 -1.781,-1.46 -3.221,-1.46 -1.64,0 -2.74,1 -2.74,2.681 0,2.34 1.92,3.361 5.821,3.74 v 0.281 c 0,1.04 -0.6,1.44 -1.661,1.44 -1.12,0 -2.18,-0.32 -3.22,-0.78 l -0.3,1.92 c 1.12,0.44 2.3,0.781 3.841,0.781 2.5,0 3.74,-0.921 3.74,-3.241 v -6.622 z"
       style="fill:#0e1531;fill-opacity:1;fill-rule:nonzero;stroke:none"
       transform="matrix(1.3333333,0,0,-1.3333333,406.70787,102.53067)" />
    <path
       id="path21"
       d="m 0,0 v 14.063 l 2.4,0.38 V 0 Z"
       style="fill:#0e1531;fill-opacity:1;fill-rule:nonzero;stroke:none"
       transform="matrix(1.3333333,0,0,-1.3333333,414.14347,108.9584)" />
    <path
       id="path22"
       d="m 0,0 v 13.803 h 8.021 v -2.24 h -5.4 V 8.262 h 4.16 L 7.142,6.042 H 2.621 V 2.24 h 5.601 l 0,-2.24 z"
       style="fill:#0e1531;fill-opacity:1;fill-rule:nonzero;stroke:none"
       transform="matrix(1.3333333,0,0,-1.3333333,428.89013,108.9584)" />
    <path
       id="path23"
       d="M 0,0 V 6.321 C 0,7.162 -0.36,7.742 -1.24,7.742 -2,7.742 -2.741,7.262 -3.441,6.521 V 0 h -2.4 v 9.662 h 2.04 l 0.22,-1.36 c 0.9,0.86 1.921,1.56 3.221,1.56 1.8,0 2.76,-1.1 2.76,-2.901 L 2.4,0 Z"
       style="fill:#0e1531;fill-opacity:1;fill-rule:nonzero;stroke:none"
       transform="matrix(1.3333333,0,0,-1.3333333,451.31787,108.9584)" />
    <path
       id="path24"
       d="m 0,0 c -1.061,0 -1.681,-0.82 -1.681,-1.88 0,-1 0.64,-1.761 1.681,-1.761 1.06,0 1.7,0.78 1.7,1.821 C 1.7,-0.78 1.02,0 0,0 m -1.46,-7.862 c -0.701,-0.48 -1.021,-0.94 -1.021,-1.44 0,-0.72 0.86,-1.24 2.681,-1.24 1.72,0 2.7,0.58 2.7,1.3 0,0.52 -0.42,0.82 -1.62,1 l -1.3,0.16 c -0.66,0.081 -0.98,0.12 -1.44,0.22 m 1.5,-4.1 c -2.621,0 -4.601,0.799 -4.601,2.4 0,0.92 0.62,1.6 1.82,2.26 -0.38,0.301 -0.56,0.66 -0.56,1.061 0,0.54 0.42,1.06 1.22,1.52 -1.14,0.54 -1.82,1.56 -1.82,2.841 0,2.1 1.72,3.421 3.881,3.421 1.1,0 2.04,-0.321 2.74,-0.901 l 2.361,0.84 0.32,-1.92 -1.76,-0.12 C 3.801,-0.94 3.9,-1.38 3.9,-1.82 c 0,-2.081 -1.78,-3.321 -3.86,-3.321 -0.28,0 -0.561,0 -0.8,0.04 -0.24,-0.16 -0.381,-0.34 -0.381,-0.5 0,-0.32 0.301,-0.4 1.801,-0.62 l 1.24,-0.12 c 1.98,-0.281 3.221,-0.901 3.221,-2.381 0,-2.08 -2.281,-3.24 -5.081,-3.24"
       style="fill:#0e1531;fill-opacity:1;fill-rule:nonzero;stroke:none"
       transform="matrix(1.3333333,0,0,-1.3333333,463.28467,97.862667)" />
    <path
       id="path25"
       d="m 355.101,59.362 h 2.4 V 49.7 h -2.4 z m 1.22,1.62 c -0.8,0 -1.44,0.561 -1.44,1.361 0,0.82 0.64,1.4 1.44,1.4 0.78,0 1.42,-0.58 1.42,-1.4 0,-0.8 -0.64,-1.361 -1.42,-1.361"
       style="fill:#0e1531;fill-opacity:1;fill-rule:nonzero;stroke:none"
       transform="matrix(1.3333333,0,0,-1.3333333,0,175.22533)" />
    <path
       id="path26"
       d="M 0,0 V 6.321 C 0,7.162 -0.36,7.742 -1.24,7.742 -2,7.742 -2.741,7.262 -3.441,6.521 V 0 h -2.4 v 9.662 h 2.04 l 0.22,-1.36 c 0.9,0.86 1.921,1.56 3.221,1.56 1.8,0 2.76,-1.1 2.76,-2.901 L 2.4,0 Z"
       style="fill:#0e1531;fill-opacity:1;fill-rule:nonzero;stroke:none"
       transform="matrix(1.3333333,0,0,-1.3333333,488.72547,108.9584)" />
    <path
       id="path27"
       d="M 0,0 H 3.861 C 3.701,1.5 3.101,2.34 1.94,2.34 0.98,2.34 0.18,1.56 0,0 m 2.321,-6.062 c -2.701,0 -4.721,1.541 -4.721,5.021 0,3.142 1.88,5.042 4.4,5.042 2.901,0 4.201,-2.181 4.201,-4.921 0,-0.2 -0.02,-0.44 -0.02,-0.58 H -0.04 c 0.12,-1.901 1.14,-2.701 2.621,-2.701 1.24,0 2.26,0.46 3.32,1.201 l 0.28,-1.881 c -1.04,-0.72 -2.3,-1.181 -3.86,-1.181"
       style="fill:#0e1531;fill-opacity:1;fill-rule:nonzero;stroke:none"
       transform="matrix(1.3333333,0,0,-1.3333333,498.65707,101.14333)" />
    <path
       id="path28"
       d="M 0,0 H 3.861 C 3.701,1.5 3.101,2.34 1.94,2.34 0.98,2.34 0.18,1.56 0,0 m 2.321,-6.062 c -2.701,0 -4.721,1.541 -4.721,5.021 0,3.142 1.88,5.042 4.4,5.042 2.901,0 4.201,-2.181 4.201,-4.921 0,-0.2 -0.02,-0.44 -0.02,-0.58 H -0.04 c 0.12,-1.901 1.14,-2.701 2.621,-2.701 1.24,0 2.26,0.46 3.32,1.201 l 0.28,-1.881 c -1.04,-0.72 -2.3,-1.181 -3.86,-1.181"
       style="fill:#0e1531;fill-opacity:1;fill-rule:nonzero;stroke:none"
       transform="matrix(1.3333333,0,0,-1.3333333,513.1584,101.14333)" />
    <path
       id="path29"
       d="m 0,0 v -5.541 h -2.401 v 9.662 h 2.041 l 0.299,-1.94 C 0.58,3.301 1.54,4.241 3.04,4.321 L 3.421,1.94 C 1.92,1.84 0.68,1.041 0,0"
       style="fill:#0e1531;fill-opacity:1;fill-rule:nonzero;stroke:none"
       transform="matrix(1.3333333,0,0,-1.3333333,528.32707,101.5704)" />
    <path
       id="path30"
       d="m 401.525,59.362 h 2.4 V 49.7 h -2.4 z m 1.22,1.62 c -0.801,0 -1.44,0.561 -1.44,1.361 0,0.82 0.639,1.4 1.44,1.4 0.78,0 1.42,-0.58 1.42,-1.4 0,-0.8 -0.64,-1.361 -1.42,-1.361"
       style="fill:#0e1531;fill-opacity:1;fill-rule:nonzero;stroke:none"
       transform="matrix(1.3333333,0,0,-1.3333333,0,175.22533)" />
    <path
       id="path31"
       d="m 0,0 v 6.321 c 0,0.841 -0.36,1.421 -1.24,1.421 -0.76,0 -1.5,-0.48 -2.2,-1.221 V 0 h -2.401 v 9.662 h 2.04 l 0.22,-1.36 c 0.9,0.86 1.921,1.56 3.221,1.56 1.8,0 2.76,-1.1 2.76,-2.901 V 0 Z"
       style="fill:#0e1531;fill-opacity:1;fill-rule:nonzero;stroke:none"
       transform="matrix(1.3333333,0,0,-1.3333333,550.62387,108.9584)" />
    <path
       id="path32"
       d="m 0,0 c -1.06,0 -1.68,-0.82 -1.68,-1.88 0,-1 0.64,-1.761 1.68,-1.761 1.061,0 1.7,0.78 1.7,1.821 C 1.7,-0.78 1.021,0 0,0 m -1.46,-7.862 c -0.7,-0.48 -1.02,-0.94 -1.02,-1.44 0,-0.72 0.86,-1.24 2.68,-1.24 1.721,0 2.701,0.58 2.701,1.3 0,0.52 -0.421,0.82 -1.621,1 l -1.3,0.16 c -0.66,0.081 -0.98,0.12 -1.44,0.22 m 1.5,-4.1 c -2.62,0 -4.601,0.799 -4.601,2.4 0,0.92 0.621,1.6 1.821,2.26 -0.38,0.301 -0.561,0.66 -0.561,1.061 0,0.54 0.421,1.06 1.221,1.52 -1.141,0.54 -1.82,1.56 -1.82,2.841 0,2.1 1.719,3.421 3.88,3.421 1.1,0 2.041,-0.321 2.741,-0.901 l 2.36,0.84 0.32,-1.92 -1.76,-0.12 c 0.16,-0.38 0.26,-0.82 0.26,-1.26 0,-2.081 -1.78,-3.321 -3.861,-3.321 -0.28,0 -0.56,0 -0.8,0.04 -0.24,-0.16 -0.38,-0.34 -0.38,-0.5 0,-0.32 0.3,-0.4 1.8,-0.62 l 1.24,-0.12 c 1.981,-0.281 3.221,-0.901 3.221,-2.381 0,-2.08 -2.28,-3.24 -5.081,-3.24"
       style="fill:#0e1531;fill-opacity:1;fill-rule:nonzero;stroke:none"
       transform="matrix(1.3333333,0,0,-1.3333333,562.59,97.862667)" />
    <path
       id="path33"
       d="m 0,0 v -4.921 h 4.441 l 0.2,-1.24 H 0 v -6.381 H -1.38 V 1.26 H 5.541 V 0 Z"
       style="fill:#0e1531;fill-opacity:1;fill-rule:nonzero;stroke:none"
       transform="matrix(1.3333333,0,0,-1.3333333,134.44947,125.23507)" />
    <path
       id="path34"
       d="m 0,0 c -3.721,-0.38 -4.761,-1.28 -4.761,-2.561 0,-1.02 0.7,-1.54 1.7,-1.54 1.02,0 2.141,0.56 3.061,1.42 z m 0.3,-5.021 -0.22,1.26 c -0.88,-0.82 -1.98,-1.46 -3.341,-1.46 -1.64,0 -2.82,0.9 -2.82,2.58 0,2.221 1.8,3.261 6.081,3.682 v 0.62 c 0,1.28 -0.76,1.82 -1.96,1.82 -1.121,0 -2.221,-0.34 -3.261,-0.84 l -0.18,1.18 c 1.1,0.48 2.18,0.82 3.521,0.82 2.1,0 3.18,-0.98 3.18,-2.921 v -6.741 z"
       style="fill:#0e1531;fill-opacity:1;fill-rule:nonzero;stroke:none"
       transform="matrix(1.3333333,0,0,-1.3333333,152.23653,135.26373)" />
    <path
       id="path35"
       d="m 0,0 c -2.42,0 -4.281,1.801 -4.281,4.921 0,3.181 1.921,4.941 4.361,4.941 1.28,0 2.3,-0.42 3.041,-0.96 L 2.9,7.582 c -0.879,0.74 -1.76,1.14 -2.86,1.14 -1.721,0 -2.981,-1.36 -2.981,-3.781 0,-2.38 1.28,-3.781 3.061,-3.781 1,0 1.941,0.3 2.901,1.121 l 0.18,-1.22 C 2.32,0.38 1.3,0 0,0"
       style="fill:#0e1531;fill-opacity:1;fill-rule:nonzero;stroke:none"
       transform="matrix(1.3333333,0,0,-1.3333333,163.85693,142.22533)" />
    <path
       id="path36"
       d="m 0,0 -0.22,1.4 c -1.04,-0.92 -2.121,-1.6 -3.401,-1.6 -1.9,0 -2.82,1.1 -2.82,2.901 v 6.761 h 1.32 V 2.94 c 0,-1.22 0.56,-1.94 1.76,-1.94 1,0 2.021,0.601 3.061,1.621 V 9.462 H 1.02 L 1.02,0 Z"
       style="fill:#0e1531;fill-opacity:1;fill-rule:nonzero;stroke:none"
       transform="matrix(1.3333333,0,0,-1.3333333,180.63107,141.9584)" />
    <path
       id="path37"
       d="m 0,0 v 14.123 l 1.3,0.24 V 0 Z"
       style="fill:#0e1531;fill-opacity:1;fill-rule:nonzero;stroke:none"
       transform="matrix(1.3333333,0,0,-1.3333333,187.05293,141.9584)" />
    <path
       id="path38"
       d="m 0,0 c -1.48,0 -2.46,0.58 -2.46,2.321 v 6.181 h -1.461 v 1.12 h 1.461 v 3.281 l 1.3,0.22 V 9.622 H 1.02 L 1.2,8.502 H -1.16 V 2.541 c 0,-0.96 0.38,-1.381 1.4,-1.381 0.3,0 0.66,0.06 0.88,0.1 l 0.2,-1.1 C 1.04,0.08 0.56,0 0,0"
       style="fill:#0e1531;fill-opacity:1;fill-rule:nonzero;stroke:none"
       transform="matrix(1.3333333,0,0,-1.3333333,197.75213,142.172)" />
    <path
       id="path39"
       d="m 0,0 c -0.66,-1.82 -1.52,-2.36 -2.84,-2.36 -0.261,0 -0.441,0.04 -0.58,0.06 l -0.201,1.18 c 0.221,-0.04 0.48,-0.08 0.761,-0.08 0.819,0 1.3,0.36 1.68,1.4 l 0.4,0.98 -3.581,9.402 1.3,0.24 2.921,-8.041 2.781,7.921 h 1.38 z"
       style="fill:#0e1531;fill-opacity:1;fill-rule:nonzero;stroke:none"
       transform="matrix(1.3333333,0,0,-1.3333333,208.40253,143.612)" />
    <path
       id="path40"
       d="m 0,0 c -1.76,0 -2.901,-1.44 -2.901,-3.821 0,-2.301 1.181,-3.801 2.901,-3.801 1.78,0 2.94,1.44 2.94,3.801 C 2.94,-1.5 1.78,0 0,0 m 0,-8.742 c -2.42,0 -4.241,1.801 -4.241,4.921 0,3.141 1.861,4.941 4.241,4.941 2.46,0 4.301,-1.8 4.301,-4.941 0,-3.12 -1.881,-4.921 -4.301,-4.921"
       style="fill:#0e1531;fill-opacity:1;fill-rule:nonzero;stroke:none"
       transform="matrix(1.3333333,0,0,-1.3333333,229.6552,130.56907)" />
    <path
       id="path41"
       d="M 0,0 C -0.9,0 -1.44,-0.42 -1.44,-1.46 V -3.641 H 0.5 l 0.18,-1.12 h -2.12 v -8.342 h -1.3 v 8.342 h -1.441 v 1.12 h 1.441 v 2.281 c 0,1.74 1.04,2.54 2.66,2.54 0.3,0 0.48,-0.02 0.681,-0.04 L 0.8,-0.08 C 0.621,-0.04 0.36,0 0,0"
       style="fill:#0e1531;fill-opacity:1;fill-rule:nonzero;stroke:none"
       transform="matrix(1.3333333,0,0,-1.3333333,243.7456,124.48773)" />
    <path
       id="path42"
       d="M 0,0 H 5.061 L 2.521,6.602 Z M 1.84,8.202 H 3.261 L 8.662,-5.521 7.302,-5.821 5.541,-1.22 H -0.48 l -1.7,-4.461 h -1.421 z"
       style="fill:#0e1531;fill-opacity:1;fill-rule:nonzero;stroke:none"
       transform="matrix(1.3333333,0,0,-1.3333333,259.26453,134.3836)" />
    <path
       id="path43"
       d="m 0,0 c -1.12,0 -1.98,-0.66 -2.84,-1.701 v -5.22 c 0.739,-0.361 1.44,-0.561 2.42,-0.561 1.7,0 3.021,1.3 3.021,3.941 C 2.601,-1.24 1.5,0 0,0 m -0.38,-8.602 c -0.94,0 -1.781,0.18 -2.46,0.46 v -3.781 l -1.321,-0.22 V 0.98 h 1.02 l 0.221,-1.36 c 0.739,0.84 1.68,1.56 3.06,1.56 2.061,0 3.801,-1.5 3.801,-4.661 0,-3.46 -2.021,-5.121 -4.321,-5.121"
       style="fill:#0e1531;fill-opacity:1;fill-rule:nonzero;stroke:none"
       transform="matrix(1.3333333,0,0,-1.3333333,280.35307,130.6492)" />
    <path
       id="path44"
       d="m 0,0 c -1.12,0 -1.98,-0.66 -2.84,-1.701 v -5.22 c 0.739,-0.361 1.44,-0.561 2.42,-0.561 1.7,0 3.021,1.3 3.021,3.941 C 2.601,-1.24 1.5,0 0,0 m -0.38,-8.602 c -0.94,0 -1.781,0.18 -2.46,0.46 v -3.781 l -1.321,-0.22 V 0.98 h 1.02 l 0.221,-1.36 c 0.74,0.84 1.68,1.56 3.06,1.56 2.061,0 3.801,-1.5 3.801,-4.661 0,-3.46 -2.021,-5.121 -4.321,-5.121"
       style="fill:#0e1531;fill-opacity:1;fill-rule:nonzero;stroke:none"
       transform="matrix(1.3333333,0,0,-1.3333333,295.45133,130.6492)" />
    <path
       id="path45"
       d="m 0,0 v 14.123 l 1.3,0.24 V 0 Z"
       style="fill:#0e1531;fill-opacity:1;fill-rule:nonzero;stroke:none"
       transform="matrix(1.3333333,0,0,-1.3333333,305.12133,141.9584)" />
    <path
       id="path46"
       d="m 234.017,34.412 h 1.3 V 24.95 h -1.3 z m 0.66,2.261 c -0.52,0 -0.96,0.44 -0.96,0.96 0,0.52 0.44,0.96 0.96,0.96 0.52,0 0.94,-0.44 0.94,-0.96 0,-0.52 -0.42,-0.96 -0.94,-0.96"
       style="fill:#0e1531;fill-opacity:1;fill-rule:nonzero;stroke:none"
       transform="matrix(1.3333333,0,0,-1.3333333,0,175.22533)" />
    <path
       id="path47"
       d="M 0,0 H 5.181 C 5.061,1.7 4.221,2.921 2.681,2.921 1.3,2.921 0.26,1.9 0,0 m 2.901,-5.881 c -2.481,0 -4.261,1.68 -4.261,4.941 0,3.041 1.72,4.921 4.061,4.921 2.56,0 3.841,-2.121 3.841,-4.741 V -1.04 H -0.04 C 0,-3.381 1.081,-4.741 2.981,-4.741 c 1.26,0 2.36,0.56 3.341,1.4 l 0.199,-1.2 c -0.939,-0.8 -2.16,-1.34 -3.62,-1.34"
       style="fill:#0e1531;fill-opacity:1;fill-rule:nonzero;stroke:none"
       transform="matrix(1.3333333,0,0,-1.3333333,319.90187,134.3836)" />
    <path
       id="path48"
       d="m 0,0 c -0.74,0.38 -1.44,0.56 -2.42,0.56 -1.701,0 -3.021,-1.28 -3.021,-3.941 0,-2.3 1.1,-3.541 2.6,-3.541 1.121,0 2.001,0.68 2.841,1.701 z m 0.32,-7.902 -0.24,1.381 c -0.72,-0.861 -1.661,-1.581 -3.041,-1.581 -2.08,0 -3.821,1.48 -3.821,4.661 0,3.461 2.021,5.141 4.322,5.141 0.96,0 1.8,-0.18 2.46,-0.48 v 5.001 l 1.32,0.24 V -7.902 Z"
       style="fill:#0e1531;fill-opacity:1;fill-rule:nonzero;stroke:none"
       transform="matrix(1.3333333,0,0,-1.3333333,341.29053,131.42253)" />
    <path
       id="path49"
       d="m 0,0 c -1.48,0 -2.74,0.38 -3.661,0.86 l 0.201,1.401 c 0.839,-0.54 2.12,-1.041 3.52,-1.041 1.621,0 2.841,0.921 2.841,2.481 0,1.36 -0.68,2.04 -2.781,2.961 -2.641,1.16 -3.6,2.04 -3.6,3.981 0,2.08 1.68,3.48 3.96,3.48 1.301,0 2.321,-0.3 3.041,-0.72 l -0.2,-1.381 c -0.78,0.521 -1.74,0.881 -2.901,0.881 -1.62,0 -2.52,-0.98 -2.52,-2.18 0,-1.241 0.66,-1.841 2.78,-2.781 C 3.241,6.822 4.281,5.821 4.281,3.801 4.281,1.44 2.421,0 0,0"
       style="fill:#0e1531;fill-opacity:1;fill-rule:nonzero;stroke:none"
       transform="matrix(1.3333333,0,0,-1.3333333,359.7684,142.172)" />
    <path
       id="path50"
       d="m 0,0 c -2.42,0 -4.281,1.801 -4.281,4.921 0,3.181 1.921,4.941 4.361,4.941 1.28,0 2.3,-0.42 3.041,-0.96 L 2.9,7.582 c -0.879,0.74 -1.76,1.14 -2.86,1.14 -1.721,0 -2.981,-1.36 -2.981,-3.781 0,-2.38 1.28,-3.781 3.061,-3.781 1,0 1.941,0.3 2.901,1.121 l 0.18,-1.22 C 2.32,0.38 1.3,0 0,0"
       style="fill:#0e1531;fill-opacity:1;fill-rule:nonzero;stroke:none"
       transform="matrix(1.3333333,0,0,-1.3333333,374.96893,142.22533)" />
    <path
       id="path51"
       d="m 287.493,34.412 h 1.3 V 24.95 h -1.3 z m 0.66,2.261 c -0.52,0 -0.959,0.44 -0.959,0.96 0,0.52 0.439,0.96 0.959,0.96 0.521,0 0.941,-0.44 0.941,-0.96 0,-0.52 -0.42,-0.96 -0.941,-0.96"
       style="fill:#0e1531;fill-opacity:1;fill-rule:nonzero;stroke:none"
       transform="matrix(1.3333333,0,0,-1.3333333,0,175.22533)" />
    <path
       id="path52"
       d="M 0,0 H 5.181 C 5.061,1.7 4.221,2.921 2.681,2.921 1.3,2.921 0.26,1.9 0,0 m 2.901,-5.881 c -2.481,0 -4.261,1.68 -4.261,4.941 0,3.041 1.72,4.921 4.061,4.921 2.56,0 3.841,-2.121 3.841,-4.741 V -1.04 H -0.04 C 0,-3.381 1.081,-4.741 2.981,-4.741 c 1.26,0 2.36,0.56 3.341,1.4 l 0.199,-1.2 c -0.939,-0.8 -2.16,-1.34 -3.62,-1.34"
       style="fill:#0e1531;fill-opacity:1;fill-rule:nonzero;stroke:none"
       transform="matrix(1.3333333,0,0,-1.3333333,391.204,134.3836)" />
    <path
       id="path53"
       d="m 0,0 v 6.521 c 0,1.221 -0.56,1.961 -1.76,1.961 -1.001,0 -2.021,-0.62 -3.061,-1.641 V 0 h -1.32 v 9.462 h 1.02 l 0.22,-1.4 c 1.04,0.92 2.12,1.6 3.401,1.6 1.88,0 2.82,-1.08 2.82,-2.901 L 1.32,0 Z"
       style="fill:#0e1531;fill-opacity:1;fill-rule:nonzero;stroke:none"
       transform="matrix(1.3333333,0,0,-1.3333333,412.44027,141.9584)" />
    <path
       id="path54"
       d="m 0,0 c -2.42,0 -4.281,1.801 -4.281,4.921 0,3.181 1.92,4.941 4.361,4.941 1.28,0 2.3,-0.42 3.041,-0.96 L 2.9,7.582 c -0.879,0.74 -1.76,1.14 -2.86,1.14 -1.721,0 -2.981,-1.36 -2.981,-3.781 0,-2.38 1.28,-3.781 3.061,-3.781 1,0 1.941,0.3 2.901,1.121 l 0.18,-1.22 C 2.32,0.38 1.3,0 0,0"
       style="fill:#0e1531;fill-opacity:1;fill-rule:nonzero;stroke:none"
       transform="matrix(1.3333333,0,0,-1.3333333,424.10107,142.22533)" />
    <path
       id="path55"
       d="M 0,0 H 5.181 C 5.061,1.7 4.221,2.921 2.681,2.921 1.3,2.921 0.26,1.9 0,0 m 2.901,-5.881 c -2.481,0 -4.261,1.68 -4.261,4.941 0,3.041 1.72,4.921 4.061,4.921 2.56,0 3.841,-2.121 3.841,-4.741 V -1.04 H -0.04 C 0,-3.381 1.081,-4.741 2.981,-4.741 c 1.26,0 2.36,0.56 3.341,1.4 l 0.199,-1.2 c -0.939,-0.8 -2.16,-1.34 -3.62,-1.34"
       style="fill:#0e1531;fill-opacity:1;fill-rule:nonzero;stroke:none"
       transform="matrix(1.3333333,0,0,-1.3333333,433.32373,134.3836)" />
    <path
       id="path56"
       d="m 0,0 2.639,-19.144 8.673,14.493 -3.68,-15.941 9.35,8.946 -4.869,-11.81 7.78,5.806 C 16.272,-27.505 13.116,-33.03 0,-37.521 c -13.116,4.491 -16.272,10.016 -19.892,19.871 l 7.779,-5.806 -4.869,11.81 9.35,-8.946 -3.68,15.941 8.673,-14.493 z"
       style="fill:#0e1531;fill-opacity:1;fill-rule:nonzero;stroke:none"
       transform="matrix(1.3333333,0,0,-1.3333333,66.004667,66.428133)" />
    <path
       id="path57"
       d="m 0,0 c -3.974,0 -6.347,2.127 -6.347,5.7 v 8.554 h 3.294 V 5.835 c 0,-2.076 1.092,-3.218 3.078,-3.218 2.038,0 3.117,1.094 3.117,3.158 v 8.479 H 6.459 V 5.757 C 6.459,2.205 3.984,0 0,0"
       style="fill:#0e1531;fill-opacity:1;fill-rule:nonzero;stroke:none"
       transform="matrix(1.3333333,0,0,-1.3333333,47.685067,57.876)" />
    <path
       id="path58"
       d="m 0,0 h -4.601 v 14.017 h 4.669 c 3.414,0 5.295,-1.325 5.295,-3.723 C 5.363,9.033 4.705,8.062 3.449,7.467 5.133,6.872 5.988,5.76 5.988,4.152 5.988,1.473 3.863,0 0,0 M -1.418,2.341 H 0 c 1.282,0 2.805,0.327 2.805,1.89 0,1.61 -1.549,1.953 -2.852,1.953 h -1.371 z m 0,6.045 h 1.197 c 1.604,0 2.491,0.602 2.491,1.692 0,1.072 -0.774,1.595 -2.36,1.595 h -1.328 z"
       style="fill:#0e1531;fill-opacity:1;fill-rule:nonzero;stroke:none"
       transform="matrix(1.3333333,0,0,-1.3333333,66.169333,57.560133)" />
    <path
       id="path59"
       d="m 0,0 c -4.537,0 -7.467,2.833 -7.467,7.227 0,4.341 3.037,7.261 7.556,7.261 1.676,0 3.087,-0.33 4.311,-1.01 L 4.508,13.419 4.015,10.564 3.799,10.709 c -1.204,0.807 -2.348,1.18 -3.598,1.18 -2.696,0 -4.307,-1.737 -4.307,-4.645 0,-2.855 1.667,-4.627 4.352,-4.627 1.271,0 2.523,0.382 3.826,1.166 L 4.287,3.912 4.752,1.25 4.648,1.189 C 3.31,0.424 1.66,0 0,0"
       style="fill:#0e1531;fill-opacity:1;fill-rule:nonzero;stroke:none"
       transform="matrix(1.3333333,0,0,-1.3333333,86.4584,57.876)" />
    <path
       id="path60"
       d="m 0,0 c -15.484,4.386 -22.875,14.61 -22.875,29.184 v 34.498 h 45.75 V 29.184 C 22.875,14.61 15.484,4.386 0,0 M -24.75,65.557 V 28.949 C -24.75,13.564 -16.379,2.425 0,-1.943 16.379,2.425 24.75,13.564 24.75,28.949 v 36.608 z"
       style="fill:#0e1531;fill-opacity:1;fill-rule:nonzero;stroke:none"
       transform="matrix(1.3333333,0,0,-1.3333333,66.0048,120.41413)" />
    <path
       id="path61"
       d="M 0,0 C 3.451,0 3.918,-1.4 6.697,-1.383 9.467,-1.4 9.941,0 13.392,0 16.843,0 17.318,-1.4 20.09,-1.383 V 1.831 C 17.318,1.812 16.843,3.195 13.392,3.195 9.941,3.195 9.467,1.812 6.697,1.831 3.918,1.812 3.451,3.195 0,3.195 c -3.451,0 -3.918,-1.383 -6.697,-1.364 -2.77,-0.019 -3.245,1.364 -6.696,1.364 -3.451,0 -3.927,-1.383 -6.697,-1.364 V -1.383 C -17.32,-1.4 -16.844,0 -13.393,0 -9.942,0 -9.467,-1.4 -6.697,-1.383 -3.918,-1.4 -3.451,0 0,0"
       style="fill:#0e1531;fill-opacity:1;fill-rule:nonzero;stroke:none"
       transform="matrix(1.3333333,0,0,-1.3333333,66.005867,64.179867)" />
    <path
       id="path62"
       d="m 0,0 c 1.665,-0.398 2.457,-1.159 4.511,-1.146 2.769,-0.017 3.244,1.383 6.695,1.383 3.451,0 3.926,-1.4 6.697,-1.383 V 2.068 C 15.132,2.049 14.657,3.432 11.206,3.432 7.755,3.432 7.28,2.049 4.511,2.068 2.279,2.053 1.537,2.941 -0.454,3.292 Z"
       style="fill:#0e1531;fill-opacity:1;fill-rule:nonzero;stroke:none"
       transform="matrix(1.3333333,0,0,-1.3333333,68.921333,71.9236)" />
    <path
       id="path63"
       d="M 0,0 C 2.053,-0.013 2.845,0.747 4.509,1.146 L 4.963,4.437 C 2.973,4.086 2.231,3.199 0,3.214 -2.77,3.195 -3.244,4.578 -6.695,4.578 c -3.452,0 -3.928,-1.383 -6.698,-1.364 V 0 c 2.77,-0.017 3.246,1.383 6.698,1.383 3.451,0 3.925,-1.4 6.695,-1.383"
       style="fill:#0e1531;fill-opacity:1;fill-rule:nonzero;stroke:none"
       transform="matrix(1.3333333,0,0,-1.3333333,57.076133,73.451733)" />
    <path
       id="path64"
       d="M 0,0 C 0.942,-0.324 1.665,-0.719 2.783,-0.859 L 4.712,2.364 C 4.411,2.323 4.082,2.3 3.711,2.302 1.801,2.29 0.983,2.938 -0.461,3.345 Z"
       style="fill:#0e1531;fill-opacity:1;fill-rule:nonzero;stroke:none"
       transform="matrix(1.3333333,0,0,-1.3333333,69.988267,79.664133)" />
    <path
       id="path65"
       d="m 0,0 c 0.451,0.071 0.964,0.115 1.571,0.115 3.451,0 3.926,-1.4 6.697,-1.383 V 1.946 C 5.497,1.928 5.022,3.31 1.571,3.31 1.279,3.31 1.01,3.3 0.758,3.282 Z"
       style="fill:#0e1531;fill-opacity:1;fill-rule:nonzero;stroke:none"
       transform="matrix(1.3333333,0,0,-1.3333333,81.768133,79.189333)" />
    <path
       id="path66"
       d="M 0,0 -0.758,3.282 C -1.01,3.3 -1.278,3.31 -1.569,3.31 -5.021,3.31 -5.497,1.927 -8.266,1.946 v -3.214 c 2.769,-0.017 3.245,1.383 6.697,1.383 C -0.964,0.115 -0.451,0.071 0,0"
       style="fill:#0e1531;fill-opacity:1;fill-rule:nonzero;stroke:none"
       transform="matrix(1.3333333,0,0,-1.3333333,50.241333,79.189067)" />
    <path
       id="path67"
       d="M 0,0 C 1.118,0.14 1.842,0.535 2.783,0.859 L 3.244,4.204 C 1.801,3.797 0.983,3.149 -0.926,3.162 -1.298,3.159 -1.627,3.182 -1.929,3.224 Z"
       style="fill:#0e1531;fill-opacity:1;fill-rule:nonzero;stroke:none"
       transform="matrix(1.3333333,0,0,-1.3333333,58.3104,80.809867)" />
    <path
       id="path68"
       d="m 0,0 h -2.423 v 10.215 h -3.805 v 2.159 H 3.664 L 3.988,10.215 H 0 Z"
       style="fill:#0e1531;fill-opacity:1;fill-rule:nonzero;stroke:none"
       transform="matrix(1.3333333,0,0,-1.3333333,138.9168,57.560133)" />
    <path
       id="path69"
       d="M 0,0 H -2.423 V 5.335 H -7.752 V 0 h -2.398 v 12.374 h 2.398 V 7.541 h 5.329 v 4.833 H 0 Z"
       style="fill:#0e1531;fill-opacity:1;fill-rule:nonzero;stroke:none"
       transform="matrix(1.3333333,0,0,-1.3333333,163.876,57.560133)" />
    <path
       id="path70"
       d="m 0,0 h -7.953 v 12.374 h 7.785 v -2.137 h -5.385 v -2.74 h 4.289 L -0.913,5.36 h -4.64 V 2.138 l 5.553,0 z"
       style="fill:#0e1531;fill-opacity:1;fill-rule:nonzero;stroke:none"
       transform="matrix(1.3333333,0,0,-1.3333333,183.6896,57.560133)" />
    <path
       id="path71"
       d="m 0,0 c -3.163,0 -5.05,1.896 -5.05,5.075 v 7.536 h 2.398 v -7.44 c 0,-1.989 0.949,-3.083 2.674,-3.083 1.767,0 2.7,1.045 2.7,3.032 v 7.491 H 5.143 V 5.171 C 5.143,1.931 3.219,0 0,0"
       style="fill:#0e1531;fill-opacity:1;fill-rule:nonzero;stroke:none"
       transform="matrix(1.3333333,0,0,-1.3333333,208.558,57.876133)" />
    <path
       id="path72"
       d="M 0,0 H -2.08 L -7.967,8.672 V 0 h -2.206 v 12.374 h 2.345 l 5.619,-8.307 v 8.307 H 0 Z"
       style="fill:#0e1531;fill-opacity:1;fill-rule:nonzero;stroke:none"
       transform="matrix(1.3333333,0,0,-1.3333333,237.6824,57.560133)" />
    <path
       id="path73"
       d="m 187.563,88.249 h -2.423 v 12.374 h 2.423 z"
       style="fill:#0e1531;fill-opacity:1;fill-rule:nonzero;stroke:none"
       transform="matrix(1.3333333,0,0,-1.3333333,0,175.22533)" />
    <path
       id="path74"
       d="m 0,0 h -2.176 l -4.774,12.267 2.423,0.529 3.532,-9.66 3.457,9.428 h 2.441 z"
       style="fill:#0e1531;fill-opacity:1;fill-rule:nonzero;stroke:none"
       transform="matrix(1.3333333,0,0,-1.3333333,265.71707,57.8124)" />
    <path
       id="path75"
       d="m 0,0 h -7.953 v 12.374 h 7.785 v -2.137 h -5.383 v -2.74 h 4.287 L -0.911,5.36 h -4.64 V 2.138 l 5.551,0 z"
       style="fill:#0e1531;fill-opacity:1;fill-rule:nonzero;stroke:none"
       transform="matrix(1.3333333,0,0,-1.3333333,288.9436,57.560133)" />
    <path
       id="path76"
       d="m 0,0 h 1.461 c 1.493,0 2.316,0.664 2.316,1.885 0,1.46 -1.26,1.765 -2.316,1.765 H 0 Z M 4.661,-6.77 1.136,-1.925 H 0 V -6.613 H -2.402 V 5.762 h 3.885 c 2.938,0 4.695,-1.439 4.695,-3.856 0,-1.687 -0.851,-2.89 -2.463,-3.499 l 3.434,-4.615 z"
       style="fill:#0e1531;fill-opacity:1;fill-rule:nonzero;stroke:none"
       transform="matrix(1.3333333,0,0,-1.3333333,300.2448,48.743333)" />
    <path
       id="path77"
       d="M 0,0 C -1.311,0 -2.812,0.324 -4.207,0.917 L -4.3,0.954 -3.941,3.157 -3.795,3.079 c 1.239,-0.648 2.765,-1.065 3.893,-1.065 1.361,0 2.243,0.603 2.243,1.525 0,0.922 -0.575,1.278 -2.31,1.871 -2.595,0.907 -3.91,1.725 -3.91,3.683 0,2.126 1.723,3.615 4.187,3.615 1.253,0 2.521,-0.261 3.567,-0.729 L 3.961,11.938 3.61,9.691 3.457,9.77 c -1.155,0.602 -2.208,0.894 -3.217,0.894 -1.079,0 -1.891,-0.561 -1.891,-1.308 0,-0.826 0.562,-1.141 2.478,-1.8 C 3.255,6.709 4.574,5.861 4.574,3.804 4.574,1.532 2.736,0 0,0"
       style="fill:#0e1531;fill-opacity:1;fill-rule:nonzero;stroke:none"
       transform="matrix(1.3333333,0,0,-1.3333333,321.5308,57.778533)" />
    <path
       id="path78"
       d="m 254.133,88.249 h -2.423 v 12.374 h 2.423 z"
       style="fill:#0e1531;fill-opacity:1;fill-rule:nonzero;stroke:none"
       transform="matrix(1.3333333,0,0,-1.3333333,0,175.22533)" />
    <path
       id="path79"
       d="m 0,0 h -2.42 v 10.215 h -3.802 v 2.159 h 9.89 L 3.992,10.215 H 0 Z"
       style="fill:#0e1531;fill-opacity:1;fill-rule:nonzero;stroke:none"
       transform="matrix(1.3333333,0,0,-1.3333333,353.37413,57.560133)" />
    <path
       id="path80"
       d="m 0,0 h -2.423 v 4.777 l -4.426,7.299 2.459,0.527 3.212,-5.629 3.112,5.4 H 4.593 L 0,4.803 Z"
       style="fill:#0e1531;fill-opacity:1;fill-rule:nonzero;stroke:none"
       transform="matrix(1.3333333,0,0,-1.3333333,370.63173,57.560133)" />
    <path
       id="path81"
       d="M 0,0 C -2.1,0 -3.516,-1.738 -3.516,-4.325 -3.516,-6.86 -2.037,-8.7 0,-8.7 c 2.086,0 3.491,1.749 3.491,4.35 C 3.491,-1.832 2.021,0 0,0 m 0,-10.763 c -2.966,0 -5.961,2.203 -5.961,6.413 0,4.226 2.995,6.434 5.961,6.434 2.95,0 5.931,-2.198 5.931,-6.409 0,-4.226 -2.981,-6.438 -5.931,-6.438"
       style="fill:#0e1531;fill-opacity:1;fill-rule:nonzero;stroke:none"
       transform="matrix(1.3333333,0,0,-1.3333333,397.3916,43.525867)" />
    <path
       id="path82"
       d="M 0,0 H -2.394 V 12.374 H 5.194 V 10.237 H 0 V 7.305 H 4.076 L 4.427,5.169 H 0 Z"
       style="fill:#0e1531;fill-opacity:1;fill-rule:nonzero;stroke:none"
       transform="matrix(1.3333333,0,0,-1.3333333,415.91973,57.560133)" />
    <path
       id="path83"
       d="m 0,0 h 1.576 c 1.38,0 2.074,0.513 2.074,1.527 0,0.582 -0.208,1.36 -2.003,1.36 H 0 Z m 0,-5.43 h 1.789 c 1.608,0 2.388,0.547 2.388,1.673 0,1.186 -0.792,1.791 -2.362,1.791 L 0,-1.966 Z M 1.768,-7.447 H -2.305 V 4.928 h 4.047 c 2.607,0 4.162,-1.2 4.162,-3.208 0,-1.186 -0.515,-2.062 -1.539,-2.609 1.387,-0.504 2.095,-1.468 2.095,-2.868 0,-2.376 -1.67,-3.69 -4.692,-3.69"
       style="fill:#0e1531;fill-opacity:1;fill-rule:nonzero;stroke:none"
       transform="matrix(1.3333333,0,0,-1.3333333,443.37947,47.6312)" />
    <path
       id="path84"
       d="M 0,0 H 1.456 C 2.946,0 3.77,0.664 3.77,1.885 3.77,3.345 2.513,3.65 1.456,3.65 H 0 Z M 4.652,-6.77 1.126,-1.925 H 0 V -6.613 H -2.402 V 5.762 h 3.881 c 2.939,0 4.691,-1.439 4.691,-3.856 0,-1.687 -0.851,-2.89 -2.459,-3.499 l 3.432,-4.615 z"
       style="fill:#0e1531;fill-opacity:1;fill-rule:nonzero;stroke:none"
       transform="matrix(1.3333333,0,0,-1.3333333,462.99773,48.743333)" />
    <path
       id="path85"
       d="m 362.116,88.249 h -2.427 v 12.374 h 2.427 z"
       style="fill:#0e1531;fill-opacity:1;fill-rule:nonzero;stroke:none"
       transform="matrix(1.3333333,0,0,-1.3333333,0,175.22533)" />
    <path
       id="path86"
       d="m 0,0 h -2.419 v 10.215 h -3.805 v 2.159 H 3.668 L 3.99,10.215 H 0 Z"
       style="fill:#0e1531;fill-opacity:1;fill-rule:nonzero;stroke:none"
       transform="matrix(1.3333333,0,0,-1.3333333,497.3748,57.560133)" />
    <path
       id="path87"
       d="m 383.872,88.249 h -2.423 v 12.374 h 2.423 z"
       style="fill:#0e1531;fill-opacity:1;fill-rule:nonzero;stroke:none"
       transform="matrix(1.3333333,0,0,-1.3333333,0,175.22533)" />
    <path
       id="path88"
       d="m 0,0 c -1.315,0 -2.81,0.324 -4.211,0.917 l -0.089,0.037 0.351,2.203 0.15,-0.078 c 1.245,-0.648 2.773,-1.065 3.893,-1.065 1.362,0 2.245,0.603 2.245,1.525 0,0.922 -0.577,1.278 -2.312,1.871 -2.589,0.907 -3.91,1.725 -3.91,3.683 0,2.126 1.727,3.615 4.195,3.615 1.249,0 2.513,-0.261 3.561,-0.729 L 3.961,11.938 3.61,9.691 3.46,9.77 c -1.155,0.602 -2.211,0.894 -3.224,0.894 -1.073,0 -1.887,-0.561 -1.887,-1.308 0,-0.826 0.559,-1.141 2.478,-1.8 C 3.253,6.709 4.568,5.861 4.568,3.804 4.568,1.532 2.732,0 0,0"
       style="fill:#0e1531;fill-opacity:1;fill-rule:nonzero;stroke:none"
       transform="matrix(1.3333333,0,0,-1.3333333,525.15413,57.778533)" />
    <path
       id="path89"
       d="M 0,0 H -2.423 V 5.335 H -7.748 V 0 h -2.398 v 12.374 h 2.398 V 7.541 h 5.325 v 4.833 H 0 Z"
       style="fill:#0e1531;fill-opacity:1;fill-rule:nonzero;stroke:none"
       transform="matrix(1.3333333,0,0,-1.3333333,551.8048,57.560133)" />
    <path
       id="path90"
       d="m 0,0 c -3.563,0 -5.959,2.566 -5.959,6.39 0,3.862 2.396,6.457 5.959,6.457 1.413,0 2.548,-0.298 3.561,-0.949 L 3.629,11.853 3.247,9.59 3.083,9.71 c -0.978,0.736 -1.93,1.078 -3.009,1.078 -2.228,0 -3.561,-1.641 -3.561,-4.376 0,-2.697 1.378,-4.372 3.608,-4.372 1.067,0 2.179,0.381 3.206,1.1 L 3.487,3.254 3.819,1.138 3.75,1.099 C 2.677,0.391 1.348,0 0,0"
       style="fill:#0e1531;fill-opacity:1;fill-rule:nonzero;stroke:none"
       transform="matrix(1.3333333,0,0,-1.3333333,576.58187,57.876133)" />
    <path
       id="path91"
       d="M 0,0 C -2.103,0 -3.516,-1.738 -3.516,-4.325 -3.516,-6.86 -2.037,-8.7 0,-8.7 c 2.082,0 3.487,1.749 3.487,4.35 C 3.487,-1.832 2.019,0 0,0 m 0,-10.763 c -2.966,0 -5.961,2.203 -5.961,6.413 0,4.226 2.995,6.434 5.961,6.434 2.944,0 5.931,-2.198 5.931,-6.409 0,-4.226 -2.987,-6.438 -5.931,-6.438"
       style="fill:#0e1531;fill-opacity:1;fill-rule:nonzero;stroke:none"
       transform="matrix(1.3333333,0,0,-1.3333333,595.54733,43.525867)" />
    <path
       id="path92"
       d="m 0,0 h -7.321 v 12.374 h 2.4 V 2.115 h 4.578 z"
       style="fill:#0e1531;fill-opacity:1;fill-rule:nonzero;stroke:none"
       transform="matrix(1.3333333,0,0,-1.3333333,620.28293,57.560133)" />
    <path
       id="path93"
       d="m 0,0 c -3.161,0 -5.05,1.896 -5.05,5.075 v 7.536 h 2.4 v -7.44 c 0,-1.989 0.947,-3.083 2.675,-3.083 1.764,0 2.693,1.045 2.693,3.035 v 7.488 H 5.147 V 5.171 C 5.147,1.931 3.221,0 0,0"
       style="fill:#0e1531;fill-opacity:1;fill-rule:nonzero;stroke:none"
       transform="matrix(1.3333333,0,0,-1.3333333,632.7028,57.876133)" />
    <path
       id="path94"
       d="M 0,0 H -2.32 L -5.621,9.383 -6.308,0.046 h -2.205 l 0.976,12.374 h 3.262 L -1.036,2.941 2.246,12.42 H 5.438 L 6.414,0.046 h -2.4 L 3.307,9.383 Z"
       style="fill:#0e1531;fill-opacity:1;fill-rule:nonzero;stroke:none"
       transform="matrix(1.3333333,0,0,-1.3333333,658.71053,57.6212)" />
    <path
       id="path95"
       d="m 0,0 h 1.574 c 1.376,0 2.073,0.513 2.073,1.527 0,0.582 -0.203,1.36 -2.002,1.36 H 0 Z m 0,-5.43 h 1.783 c 1.61,0 2.394,0.547 2.394,1.673 0,1.186 -0.796,1.791 -2.366,1.791 l -1.811,0 z m 1.764,-2.017 h -4.07 V 4.928 h 4.044 c 2.613,0 4.17,-1.2 4.17,-3.208 0,-1.186 -0.521,-2.062 -1.543,-2.609 1.383,-0.504 2.091,-1.468 2.091,-2.868 0,-2.376 -1.664,-3.69 -4.692,-3.69"
       style="fill:#0e1531;fill-opacity:1;fill-rule:nonzero;stroke:none"
       transform="matrix(1.3333333,0,0,-1.3333333,678.97693,47.6312)" />
    <path
       id="path96"
       d="m 524.186,88.249 h -2.425 v 12.374 h 2.425 z"
       style="fill:#0e1531;fill-opacity:1;fill-rule:nonzero;stroke:none"
       transform="matrix(1.3333333,0,0,-1.3333333,0,175.22533)" />
    <path
       id="path97"
       d="M 0,0 H 3.594 C 3.374,0.63 2.47,3.06 1.807,4.852 Z M 5.6,-5.409 4.402,-2.137 H -0.786 L -1.912,-5.176 H -4.283 L 0.597,7.342 H 3.161 L 7.976,-4.875 Z"
       style="fill:#0e1531;fill-opacity:1;fill-rule:nonzero;stroke:none"
       transform="matrix(1.3333333,0,0,-1.3333333,710.86427,50.659333)" />
  </g>
</svg>
